<?xml version="1.0" encoding="utf-8"?>
<svg version="1.1" xmlns="http://www.w3.org/2000/svg" xmlns:xlink="http://www.w3.org/1999/xlink" xml:space="preserve" x="0px" y="0px" viewBox="0 0 1248 288">
<g fill="#0D6EFD">
  <path d="M112,0H64H16C7.2,0,0,7.2,0,16v48v48c0,8.8,7.2,16,16,16h48h48c8.8,0,16-7.2,16-16V64V16C128,7.2,120.8,0,112,0z"/>
  <path d="M112,160H64H16c-8.8,0-16,7.2-16,16v48v48c0,8.8,7.2,16,16,16h48h48c8.8,0,16-7.2,16-16v-48v-48 C128,167.2,120.8,160,112,160z"/>
  <path d="M272,0h-48c-35.3,0-64,28.7-64,64v48c0,8.8,7.2,16,16,16h48c35.3,0,64-28.7,64-64V16C288,7.2,280.8,0,272,0z"/>
  <path d="M224,160h-48c-8.8,0-16,7.2-16,16v48c0,35.3,28.7,64,64,64h48c8.8,0,16-7.2,16-16v-48C288,188.7,259.3,160,224,160z"/>
</g>
<g fill="#198754">
  <path d="M432,0h-48h-48c-8.8,0-16,7.2-16,16v48v48c0,8.8,7.2,16,16,16h48h48c8.8,0,16-7.2,16-16V64V16C448,7.2,440.8,0,432,0z"/>
  <path d="M432,160h-48h-48c-8.8,0-16,7.2-16,16v48v48c0,8.8,7.2,16,16,16h48h48c8.8,0,16-7.2,16-16v-48v-48 C448,167.2,440.8,160,432,160z"/>
  <path d="M592,160h-48c-35.3,0-64,28.7-64,64v48c0,8.8,7.2,16,16,16h48c35.3,0,64-28.7,64-64v-48C608,167.2,600.8,160,592,160z"/>
</g>
<g fill="#FFC107">
  <path d="M752,0h-48c-35.3,0-64,28.7-64,64v48c0,8.8,7.2,16,16,16h48h48c8.8,0,16-7.2,16-16V64V16C768,7.2,760.8,0,752,0z"/>
  <path d="M752,160h-48h-48c-8.8,0-16,7.2-16,16v48v48c0,8.8,7.2,16,16,16h48h48c8.8,0,16-7.2,16-16v-48v-48 C768,167.2,760.8,160,752,160z"/>
  <path d="M864,0h-48c-8.8,0-16,7.2-16,16v48v48c0,8.8,7.2,16,16,16h48h48c8.8,0,16-7.2,16-16V64C928,28.7,899.3,0,864,0z"/>
  <path d="M912,160h-48h-48c-8.8,0-16,7.2-16,16v48v48c0,8.8,7.2,16,16,16h48h48c8.8,0,16-7.2,16-16v-48v-48 C928,167.2,920.8,160,912,160z"/>
</g>
<g fill="#DC3545">
  <path d="M1072,0h-48c-35.3,0-64,28.7-64,64v48c0,8.8,7.2,16,16,16h48h48c8.8,0,16-7.2,16-16V64V16C1088,7.2,1080.8,0,1072,0z"/>
  <path d="M1072,160h-48h-48c-8.8,0-16,7.2-16,16v48c0,35.3,28.7,64,64,64h48c8.8,0,16-7.2,16-16v-48v-48 C1088,167.2,1080.8,160,1072,160z"/>
  <path d="M1184,0h-48c-8.8,0-16,7.2-16,16v48c0,35.3,28.7,64,64,64h48c8.8,0,16-7.2,16-16V64C1248,28.7,1219.3,0,1184,0z"/>
  <path d="M1184,160h-48c-8.8,0-16,7.2-16,16v48v48c0,8.8,7.2,16,16,16h48c35.3,0,64-28.7,64-64S1219.3,160,1184,160z"/>
</g>
</svg>
